<?xml version="1.0" standalone="no"?>
<!DOCTYPE svg PUBLIC "-//W3C//DTD SVG 20010904//EN"
 "http://www.w3.org/TR/2001/REC-SVG-20010904/DTD/svg10.dtd">
<svg version="1.0" xmlns="http://www.w3.org/2000/svg"
 width="100.000000pt" height="64.000000pt" viewBox="0 0 100.000000 64.000000"
 preserveAspectRatio="xMidYMid meet">
<metadata>
Created by potrace 1.16, written by Peter Selinger 2001-2019
</metadata>
<g transform="translate(0.000000,64.000000) scale(0.100000,-0.100000)"
fill="#660033" stroke="none">
<path d="M137 633 c-3 -5 -35 -75 -71 -157 -56 -126 -66 -157 -66 -205 l0 -56
19 41 c12 27 30 46 50 55 18 8 41 29 51 47 18 29 24 32 67 32 55 0 68 -6 77
-37 7 -21 4 -23 -31 -24 -31 0 -34 -2 -17 -9 31 -12 72 -66 80 -105 8 -45 -20
-102 -65 -132 l-34 -23 119 0 c104 1 116 2 95 14 -40 22 -50 54 -51 158 0 54
4 98 10 100 5 2 -21 72 -58 155 l-67 153 -52 0 c-28 0 -54 -3 -56 -7z"/>
<path d="M396 395 c-6 -217 -5 -251 9 -272 22 -33 60 -46 100 -33 44 14 55 45
55 150 0 89 0 90 -25 90 -22 0 -25 4 -25 40 0 52 19 52 54 0 23 -35 26 -49 26
-128 0 -105 -12 -147 -49 -167 -24 -13 -21 -14 57 -15 l82 0 0 134 c0 80 4
136 10 138 5 2 -3 23 -20 47 l-29 45 24 24 c49 49 41 122 -18 166 -24 18 -46
22 -136 24 l-108 4 -7 -247z"/>
<path d="M710 600 l0 -40 45 0 45 0 0 -115 0 -115 55 0 55 0 0 115 0 115 45 0
45 0 0 40 0 40 -145 0 -145 0 0 -40z"/>
<path d="M710 195 l0 -135 30 0 c17 0 30 5 30 11 0 6 41 61 91 122 l92 112
-92 3 c-50 1 -91 7 -91 12 0 6 -13 10 -30 10 l-30 0 0 -135z"/>
<path d="M990 318 c0 -7 -38 -59 -85 -115 -47 -57 -85 -105 -85 -108 0 -3 41
-5 90 -5 l90 0 0 120 c0 66 -2 120 -5 120 -3 0 -5 -6 -5 -12z"/>
<path d="M105 301 c-69 -31 -94 -124 -46 -175 74 -79 206 -31 206 74 0 73 -92
131 -160 101z"/>
</g>
</svg>
