<?xml version="1.0" standalone="no"?>
<!DOCTYPE svg PUBLIC "-//W3C//DTD SVG 20010904//EN"
 "http://www.w3.org/TR/2001/REC-SVG-20010904/DTD/svg10.dtd">
<svg version="1.0" xmlns="http://www.w3.org/2000/svg"
 width="1200.000000pt" height="1200.000000pt" viewBox="0 0 1200.000000 1200.000000"
 preserveAspectRatio="xMidYMid meet">
<metadata>
Created by potrace 1.16, written by Peter Selinger 2001-2019
</metadata>
<g transform="translate(0.000000,1200.000000) scale(0.100000,-0.100000)"
fill="#000000" stroke="none">
<path d="M5555 11989 c-1326 -100 -2365 -631 -2535 -1295 -19 -73 -20 -114
-20 -736 l0 -658 1500 0 1500 0 0 -150 0 -150 -2308 0 c-2263 0 -2310 0 -2386
-20 -555 -142 -1028 -898 -1220 -1950 -61 -337 -86 -632 -86 -1030 0 -316 8
-467 41 -730 137 -1108 587 -1978 1145 -2210 143 -59 147 -60 862 -60 l652 0
0 143 c0 331 26 791 61 1082 146 1215 574 1723 1573 1865 326 46 674 60 1556
60 1272 0 1719 35 2102 160 590 194 853 630 958 1590 38 353 42 480 47 1602 5
1089 5 1108 -16 1187 -125 496 -727 925 -1616 1151 -300 76 -613 126 -940 150
-162 12 -709 11 -870 -1z m-1060 -954 c182 -48 342 -208 390 -390 19 -76 19
-214 0 -290 -48 -182 -208 -342 -390 -390 -33 -8 -97 -15 -143 -15 -159 0
-283 51 -392 160 -110 110 -160 232 -160 390 0 158 50 280 160 390 110 110
226 158 385 159 52 1 116 -6 150 -14z"/>
<path d="M9296 8708 c-18 -793 -85 -1299 -222 -1690 -230 -650 -651 -975
-1423 -1093 -367 -56 -563 -65 -1731 -75 -564 -4 -1092 -13 -1175 -19 -655
-48 -977 -153 -1226 -401 -317 -316 -467 -874 -509 -1900 -5 -135 -10 -673
-10 -1196 0 -913 1 -954 20 -1028 128 -503 758 -940 1675 -1161 270 -65 581
-113 880 -135 180 -13 670 -13 850 0 1340 98 2384 628 2556 1297 18 72 19 115
19 735 l0 658 -1500 0 -1500 0 0 150 0 150 2303 0 c2517 0 2358 -3 2508 59
616 257 1088 1264 1179 2516 13 180 13 670 0 850 -98 1339 -628 2384 -1296
2555 -73 19 -114 20 -734 20 l-657 0 -7 -292z m-1501 -6673 c182 -48 342 -208
390 -390 19 -76 19 -214 0 -290 -48 -182 -208 -342 -390 -390 -33 -8 -97 -15
-143 -15 -159 0 -283 51 -392 160 -110 110 -160 232 -160 390 0 158 50 280
160 390 110 110 226 158 385 159 52 1 116 -6 150 -14z"/>
</g>
</svg>
