<?xml version="1.0" standalone="no"?>
<!DOCTYPE svg PUBLIC "-//W3C//DTD SVG 20010904//EN"
 "http://www.w3.org/TR/2001/REC-SVG-20010904/DTD/svg10.dtd">
<svg version="1.0" xmlns="http://www.w3.org/2000/svg"
 width="348.000000pt" height="348.000000pt" viewBox="0 0 348.000000 348.000000"
 preserveAspectRatio="xMidYMid meet">
<metadata>
Created by potrace 1.16, written by Peter Selinger 2001-2019
</metadata>
<g transform="translate(0.000000,348.000000) scale(0.100000,-0.100000)"
fill="#000000" stroke="none">
<path d="M553 3465 c-18 -8 -42 -29 -53 -47 -19 -32 -20 -49 -20 -604 l0 -571
-72 -7 c-92 -8 -151 -42 -185 -105 l-23 -44 0 -549 c0 -473 2 -554 15 -586 34
-81 102 -121 203 -122 l62 0 0 -367 c0 -342 1 -370 19 -399 41 -68 -36 -64
1241 -64 1277 0 1200 -4 1241 64 18 29 19 57 19 399 l0 367 60 0 c99 0 165 38
201 115 17 37 19 77 19 591 l0 551 -23 44 c-34 63 -93 97 -184 105 l-73 7 0
212 c0 204 -1 213 -22 241 -38 49 -649 748 -670 767 -19 16 -75 17 -872 17
-708 -1 -856 -3 -883 -15z m1642 -484 c0 -338 1 -360 19 -380 18 -20 29 -21
335 -23 l316 -3 3 -167 2 -168 -1130 0 -1130 0 0 550 0 550 793 0 792 0 0
-359z m-1635 -1181 l0 -150 140 0 139 0 3 148 3 147 83 3 82 3 0 -386 0 -385
-85 0 -85 0 0 160 0 160 -140 0 -140 0 0 -160 0 -160 -80 0 -80 0 0 385 0 385
80 0 80 0 0 -150z m1115 75 l0 -70 -102 -3 -103 -3 0 -309 0 -310 -85 0 -85 0
0 310 0 310 -100 0 -100 0 0 75 0 75 288 -2 287 -3 0 -70z m388 -92 c26 -93
56 -211 68 -263 11 -52 21 -96 23 -97 2 -2 19 61 40 139 20 79 54 197 75 263
l38 120 111 3 112 3 0 -41 c0 -44 26 -541 35 -657 l5 -73 -84 0 -83 0 -6 167
c-4 91 -7 227 -7 302 0 138 -7 154 -28 66 -7 -27 -44 -157 -84 -288 l-71 -238
-66 3 -65 3 -53 198 c-29 109 -60 238 -69 285 -10 48 -21 91 -24 95 -4 4 -10
-90 -14 -210 -3 -120 -9 -255 -13 -300 l-6 -83 -73 0 -74 0 0 53 c0 28 9 189
20 357 11 168 20 317 20 333 l0 27 113 0 114 0 46 -167z m805 -148 l2 -310
145 3 145 3 0 -75 0 -76 -230 0 -230 0 0 385 0 386 83 -3 82 -3 3 -310z m0
-1132 l-3 -328 -1125 0 -1125 0 -3 328 -2 327 1130 0 1130 0 -2 -327z"/>
</g>
</svg>
