<?xml version="1.0" standalone="no"?>
<!DOCTYPE svg PUBLIC "-//W3C//DTD SVG 20010904//EN"
 "http://www.w3.org/TR/2001/REC-SVG-20010904/DTD/svg10.dtd">
<svg version="1.0" xmlns="http://www.w3.org/2000/svg"
 width="500.000000pt" height="500.000000pt" viewBox="0 0 500.000000 500.000000"
 preserveAspectRatio="xMidYMid meet">
<metadata>
Created by potrace 1.16, written by Peter Selinger 2001-2019
</metadata>
<g transform="translate(0.000000,500.000000) scale(0.100000,-0.100000)"
fill="#000000" stroke="none">
<path d="M487 4789 c-9 -5 -24 -23 -32 -40 -15 -28 -3 -170 160 -2007 96
-1087 180 -1994 186 -2015 5 -20 20 -44 33 -52 33 -22 1623 -475 1666 -475 43
0 1633 453 1666 475 13 8 28 32 33 52 6 21 90 928 186 2015 164 1845 175 1979
160 2007 -8 17 -24 35 -34 41 -27 14 -3999 13 -4024 -1z m3849 -231 c-4 -24
-78 -860 -166 -1858 -88 -998 -164 -1826 -168 -1839 -6 -22 -60 -39 -755 -237
l-747 -214 -748 214 c-694 198 -748 215 -754 237 -4 13 -80 841 -168 1839 -88
998 -162 1834 -166 1858 l-5 42 1841 0 1841 0 -5 -42z"/>
<path d="M1826 3974 l-26 -27 0 -952 0 -952 -282 78 c-156 44 -301 79 -322 79
-30 0 -47 -7 -68 -27 l-28 -27 0 -292 c0 -290 0 -293 22 -318 20 -22 102 -48
583 -181 308 -85 578 -155 600 -155 32 0 47 6 68 28 l27 28 0 1346 0 1345 -26
27 -27 26 -247 0 -247 0 -27 -26z m374 -1354 c0 -649 -3 -1180 -7 -1180 -5 1
-206 56 -448 123 l-440 123 -3 137 c-1 75 0 137 2 137 3 0 134 -36 292 -80
158 -44 296 -80 306 -80 28 0 76 27 88 49 7 13 10 342 10 985 l0 966 100 0
100 0 0 -1180z"/>
<path d="M2626 3974 l-26 -27 0 -897 0 -897 26 -27 c37 -36 68 -34 379 19 143
25 265 45 270 45 6 0 9 -31 7 -80 l-4 -80 -46 -14 c-26 -7 -168 -46 -315 -87
-210 -57 -274 -79 -293 -98 l-24 -24 0 -276 0 -277 30 -29 c27 -26 33 -27 87
-22 32 3 279 67 548 141 540 150 528 145 539 228 18 131 106 1228 101 1255 -8
45 -47 73 -101 73 -39 0 -503 -61 -576 -76 l-28 -6 0 291 0 291 356 0 356 0
27 28 c26 25 28 36 40 157 6 72 14 182 18 245 l6 115 -28 28 -28 27 -647 0
-647 0 -27 -26z m1153 -246 c-4 -40 -8 -85 -8 -100 l-1 -28 -359 0 -358 0 -27
-26 -26 -27 0 -447 0 -447 26 -27 c36 -35 67 -34 394 13 146 21 266 38 267 37
6 -5 -86 -1009 -93 -1016 -8 -6 -772 -220 -788 -220 -3 0 -6 54 -6 120 0 66 2
120 5 120 3 0 143 38 312 85 247 68 312 89 332 109 29 30 36 76 47 326 l7 165
-28 28 c-41 41 -45 40 -402 -22 l-273 -47 0 738 0 738 493 0 493 0 -7 -72z"/>
</g>
</svg>
