<?xml version="1.0" standalone="no"?>
<!DOCTYPE svg PUBLIC "-//W3C//DTD SVG 20010904//EN"
 "http://www.w3.org/TR/2001/REC-SVG-20010904/DTD/svg10.dtd">
<svg version="1.0" xmlns="http://www.w3.org/2000/svg"
 width="900.000000pt" height="900.000000pt" viewBox="0 0 900.000000 900.000000"
 preserveAspectRatio="xMidYMid meet">
<metadata>
Created by potrace 1.16, written by Peter Selinger 2001-2019
</metadata>
<g transform="translate(0.000000,900.000000) scale(0.100000,-0.100000)"
fill="#000000" stroke="none">
<path d="M1465 8988 c-365 -41 -706 -208 -976 -477 -278 -279 -441 -620 -479
-1006 -8 -78 -10 -965 -8 -3010 l3 -2900 23 -109 c74 -349 214 -609 462 -857
244 -245 502 -386 843 -461 l102 -23 2995 0 2995 0 105 23 c156 34 270 75 415
147 170 85 294 174 430 310 138 139 226 262 314 440 74 149 105 237 143 405
l23 105 0 2995 0 2995 -23 102 c-75 341 -216 598 -461 844 -247 246 -508 387
-857 461 l-109 23 -2930 1 c-1697 1 -2964 -2 -3010 -8z m1700 -3292 c88 -16
205 -50 248 -73 16 -8 35 -29 42 -47 13 -31 11 -43 -23 -160 -20 -69 -45 -135
-54 -146 -29 -33 -64 -35 -132 -7 -155 64 -400 80 -561 38 -245 -64 -408 -228
-477 -481 -20 -74 -23 -108 -23 -260 0 -202 12 -263 77 -399 52 -110 159 -219
263 -270 202 -99 466 -106 717 -20 88 30 118 30 145 -2 15 -18 73 -235 73
-272 0 -46 -44 -80 -142 -111 -48 -15 -122 -34 -165 -42 -112 -21 -398 -29
-506 -15 -355 48 -641 242 -790 536 -91 179 -127 342 -128 570 -1 237 33 392
126 581 167 337 477 545 895 598 67 8 335 -3 415 -18z m1680 9 c204 -31 355
-101 355 -164 0 -14 -18 -81 -41 -148 -42 -126 -67 -163 -111 -163 -11 0 -50
13 -86 29 -123 53 -178 65 -302 65 -162 -1 -234 -31 -286 -120 -21 -36 -27
-58 -26 -103 2 -140 68 -198 373 -326 193 -81 295 -142 385 -232 121 -120 174
-255 174 -443 0 -126 -16 -196 -69 -305 -87 -177 -247 -296 -471 -351 -99 -24
-344 -29 -462 -10 -228 37 -419 126 -418 195 1 36 79 267 98 288 30 33 68 29
158 -17 151 -77 361 -110 502 -79 118 25 206 112 219 216 19 161 -57 255 -282
348 -220 92 -276 118 -347 165 -202 132 -300 300 -300 515 -1 119 19 201 70
299 141 269 474 400 867 341z m1822 5 c187 -24 357 -89 380 -146 10 -27 6 -45
-33 -168 -43 -130 -47 -138 -80 -154 -28 -13 -40 -14 -62 -5 -15 6 -54 23 -87
36 -192 81 -420 71 -519 -21 -94 -88 -86 -242 18 -327 48 -39 163 -98 281
-145 381 -151 552 -340 571 -633 21 -336 -182 -608 -521 -698 -102 -27 -336
-37 -454 -20 -171 25 -354 88 -411 141 -39 37 -39 59 5 206 38 126 63 164 109
164 13 0 66 -20 117 -44 140 -66 201 -80 354 -81 154 0 209 15 278 75 56 49
79 105 79 191 1 148 -85 231 -347 332 -278 107 -446 232 -524 393 -127 260
-45 597 183 758 183 130 403 178 663 146z"/>
</g>
</svg>
