<?xml version="1.0" standalone="no"?>
<!DOCTYPE svg PUBLIC "-//W3C//DTD SVG 20010904//EN"
 "http://www.w3.org/TR/2001/REC-SVG-20010904/DTD/svg10.dtd">
<svg version="1.0" xmlns="http://www.w3.org/2000/svg"
 width="1600.000000pt" height="1600.000000pt" viewBox="0 0 1600.000000 1600.000000"
 preserveAspectRatio="xMidYMid meet">
<metadata>
Created by potrace 1.16, written by Peter Selinger 2001-2019
</metadata>
<g transform="translate(0.000000,1600.000000) scale(0.100000,-0.100000)"
fill="#000000" stroke="none">
<path d="M4415 14989 c-377 -35 -790 -142 -1141 -294 -1135 -494 -1963 -1516
-2203 -2720 -72 -357 -66 -58 -66 -3475 0 -3417 -6 -3118 66 -3475 145 -726
501 -1388 1034 -1920 607 -608 1361 -974 2235 -1086 156 -21 6164 -21 6320 0
876 112 1626 477 2235 1086 552 551 910 1234 1048 1995 55 300 52 113 52 3410
0 3406 6 3109 -66 3465 -176 881 -663 1667 -1384 2234 -117 93 -383 267 -517
339 -449 243 -954 396 -1458 442 -140 12 -6018 12 -6155 -1z m6140 -1012 c346
-47 598 -123 900 -272 772 -379 1316 -1088 1485 -1935 57 -289 55 -144 55
-3280 0 -3019 1 -2937 -41 -3190 -140 -842 -699 -1601 -1464 -1990 -313 -158
-634 -254 -985 -292 -176 -19 -5834 -19 -6010 0 -1222 133 -2198 1019 -2435
2212 -57 289 -55 145 -55 3270 0 3125 -2 2981 55 3270 248 1245 1304 2157
2570 2220 85 4 1426 6 2980 5 2562 -1 2836 -3 2945 -18z"/>
<path d="M11350 12981 c-89 -29 -141 -60 -206 -125 -100 -100 -144 -209 -144
-356 0 -134 39 -240 121 -334 185 -209 522 -224 728 -33 169 158 201 444 73
643 -66 102 -160 172 -281 208 -74 22 -219 20 -291 -3z"/>
<path d="M7115 11984 c-1130 -120 -2146 -805 -2699 -1820 -217 -397 -359 -863
-406 -1333 -5 -57 -10 -206 -10 -331 0 -125 5 -274 10 -331 83 -823 433 -1564
1015 -2144 578 -577 1304 -924 2112 -1010 258 -28 689 -16 927 25 740 127
1387 461 1911 985 582 582 932 1322 1015 2144 13 133 13 529 0 662 -82 819
-432 1561 -1010 2140 -577 578 -1311 931 -2108 1013 -188 20 -573 19 -757 0z
m800 -1023 c259 -46 458 -111 690 -225 716 -353 1215 -1021 1355 -1817 28
-156 38 -510 21 -681 -85 -814 -580 -1551 -1301 -1936 -372 -199 -751 -293
-1180 -293 -352 0 -666 62 -967 191 -796 342 -1341 1029 -1495 1887 -20 114
-23 159 -23 413 0 254 3 299 23 413 77 425 247 808 506 1137 90 115 269 295
391 393 343 277 790 471 1210 526 44 6 94 13 110 15 17 2 145 3 285 1 208 -2
277 -6 375 -24z"/>
</g>
</svg>
