<?xml version="1.0" standalone="no"?>
<!DOCTYPE svg PUBLIC "-//W3C//DTD SVG 20010904//EN"
 "http://www.w3.org/TR/2001/REC-SVG-20010904/DTD/svg10.dtd">
<svg version="1.0" xmlns="http://www.w3.org/2000/svg"
 width="160.000000pt" height="169.000000pt" viewBox="0 0 160.000000 169.000000"
 preserveAspectRatio="xMidYMid meet">
<metadata>
Created by potrace 1.16, written by Peter Selinger 2001-2019
</metadata>
<g transform="translate(0.000000,169.000000) scale(0.100000,-0.100000)"
fill="#000000" stroke="none">
<path d="M646 1675 c-148 -28 -264 -88 -382 -199 -125 -115 -213 -273 -249
-447 -19 -90 -19 -278 0 -367 67 -319 303 -571 606 -646 87 -21 271 -21 358 0
303 75 539 327 606 646 19 89 19 277 0 366 -54 258 -216 472 -443 586 -126 63
-342 90 -496 61z m534 -281 c33 -28 60 -73 60 -99 0 -33 -83 -228 -109 -258
-34 -37 -115 -50 -156 -23 -30 20 -31 35 -5 85 24 48 40 54 85 35 l36 -15 14
36 c8 19 21 51 29 70 l15 34 -37 18 c-43 21 -51 51 -28 107 19 45 50 48 96 10z
m-301 -52 c49 -26 71 -73 71 -151 0 -50 -5 -73 -25 -107 -28 -48 -79 -84 -120
-84 -41 0 -92 36 -120 84 -32 55 -35 148 -6 205 34 66 128 91 200 53z m-151
-362 c26 -25 38 -30 79 -30 49 0 93 25 93 52 0 33 154 -37 205 -93 73 -81 80
-105 83 -300 l4 -176 -32 -26 c-55 -47 -117 -59 -321 -64 -166 -5 -195 -3
-269 16 -47 12 -97 32 -116 46 l-34 26 0 153 c0 171 11 227 59 293 33 45 94
91 156 116 55 22 59 21 93 -13z"/>
<path d="M757 761 c-26 -93 -47 -175 -47 -182 0 -8 22 -38 48 -68 l48 -54 47
55 c26 30 47 61 47 68 0 13 -89 342 -94 347 -1 2 -24 -73 -49 -166z"/>
</g>
</svg>
